<?xml version="1.0" standalone="no"?>
<!DOCTYPE svg PUBLIC "-//W3C//DTD SVG 20010904//EN"
 "http://www.w3.org/TR/2001/REC-SVG-20010904/DTD/svg10.dtd">
<svg version="1.0" xmlns="http://www.w3.org/2000/svg"
 width="512.000000pt" height="512.000000pt" viewBox="0 0 512.000000 512.000000"
 preserveAspectRatio="xMidYMid meet">

<g transform="translate(0.000000,512.000000) scale(0.100000,-0.100000)"
fill="#000000" stroke="none">
<path d="M2330 5110 c-494 -48 -950 -230 -1350 -538 -195 -150 -448 -432 -594
-662 -63 -99 -186 -351 -230 -471 -49 -134 -102 -340 -128 -499 -31 -195 -31
-565 0 -760 45 -276 116 -498 237 -745 132 -269 269 -460 489 -681 221 -220
412 -357 681 -489 247 -121 469 -192 745 -237 195 -31 565 -31 760 0 281 46
501 116 755 242 422 209 780 532 1039 940 63 99 186 351 230 471 49 134 102
340 128 499 18 113 21 176 21 380 0 204 -3 267 -21 380 -26 159 -79 365 -128
499 -44 120 -167 372 -230 471 -259 408 -617 731 -1039 940 -254 126 -479 197
-750 240 -147 23 -475 34 -615 20z m316 -1104 c139 -35 296 -91 376 -133 146
-76 252 -219 279 -376 14 -86 7 -233 -16 -334 -16 -66 -16 -75 -1 -104 30 -60
10 -221 -39 -304 -12 -22 -30 -68 -39 -103 -64 -254 -251 -501 -451 -597 -186
-90 -352 -59 -520 95 -148 136 -255 320 -296 505 -7 33 -22 76 -34 95 -29 46
-55 152 -55 224 0 42 5 64 22 86 20 28 21 33 10 132 -19 172 -22 250 -11 323
25 178 165 354 371 465 121 65 227 72 404 26z m-351 -2050 c84 -48 148 -68
235 -73 127 -9 272 42 406 141 l61 46 51 -38 c120 -87 124 -89 437 -212 307
-122 348 -150 417 -292 86 -173 150 -422 187 -726 11 -81 18 -147 17 -148 0 0
-37 -28 -81 -61 -421 -316 -930 -485 -1465 -485 -534 0 -1043 169 -1465 485
-44 33 -81 61 -81 61 -1 1 7 69 17 151 35 286 100 543 175 700 51 106 68 130
127 174 62 46 82 55 272 123 218 78 372 156 447 227 l63 59 60 -49 c33 -27 87
-64 120 -83z"/>
</g>
</svg>
